<svg viewBox="0 0 64 64" xmlns="http://www.w3.org/2000/svg"><path d="m25 48.6-10.6-10s-4.5 6.2-4.5 11.3h14.6c0-.8.5-1.3.5-1.3" fill="#94989b"/><g fill="#333"><path d="m26.9 48.5c-4.6 1.4-14.1-8-12.6-12.6l1.2-3.8 15.2 15.2z"/><path d="m15.2 7.3c-3 3-4.6 6.9-4.9 11.2-.6 7.7 3 16.7 10.1 23.9 7.2 7.1 16.2 10.6 24 10.1 4.4-.3 8.3-1.9 11.3-4.9z"/></g><path d="m43.5 8c1.9 1.6 3.9 3.4 6 5.4 2 2 3.9 4 5.5 5.9-.2-2.2-1.7-4.9-4.1-7.3-2.4-2.3-5.2-3.8-7.4-4m17.5 12.3c-.3-3.5-2.7-7.9-6.6-11.8-3.9-3.8-8.3-6.2-11.8-6.5 3.1 2.6 6.4 5.5 9.6 8.8 3.3 3.2 6.2 6.5 8.8 9.5" fill="#42ade2"/><path d="m55.5 47.8c-3.1 3.1-14.7-3.4-25.9-14.5-11.2-11.2-17.7-22.7-14.5-25.9 3.1-3.1 14.7 3.4 25.9 14.6 11.1 11.1 17.7 22.6 14.5 25.8" fill="#94989b"/><path d="m33.1 32.5-2.7-2.7 12.1-10.3 1 .9z" fill="#333"/><path d="m32.5 36c-3-2.7-5.7-5.6-5.7-5.6l4.5-3.1 4.2 4.2z" fill="#da5b52"/><path d="m48 20.6c-1.6 1.6-4.1 1.6-5.7 0s-1.6-4.1 0-5.6c1.6-1.6 4.1-1.6 5.7 0s1.5 4.1 0 5.6m-38.1 29.3c-2.7 0-4.9 2.1-4.9 4.8v5.2h8.6v-10z" fill="#333"/><path d="m24.5 49.9h-11.8v10.1h16.6v-5.2c0-2.8-2.1-4.9-4.8-4.9" fill="#616161"/><path d="m3 59.2h8.6v2.8h-8.6z" fill="#333"/><path d="m10.6 59.2h20.8v2.8h-20.8zm1.9-19h-2.3v1.5c-.6.9-.9 2.1-.9 3.4s.3 2.5.9 3.4v1.5h2.3c1.8 0 3.2-2.2 3.2-4.9 0-2.8-1.4-4.9-3.2-4.9" fill="#616161"/><ellipse cx="10.1" cy="45" fill="#333" rx="3.2" ry="4.9"/><ellipse cx="10.6" cy="45" fill="#0d0d0d" rx="2.3" ry="4"/></svg>